<svg width="120" height="110" viewBox="0 0 120 110" fill="none" xmlns="http://www.w3.org/2000/svg">
<path d="M67.0143 24.2917C81.6608 24.2917 93.5753 35.2116 93.5753 48.6393C93.5753 48.7132 93.5657 48.7908 93.5598 48.8647C93.5483 49.0443 93.5348 49.2239 93.531 49.4072L93.4312 53.0881L97.4528 53.1021C107.186 53.1268 115.104 60.4078 115.104 69.3303C115.104 78.228 107.202 85.5091 97.4894 85.5548L96.6306 85.5583H24.6039C13.7655 85.5478 4.9464 77.4602 4.9464 67.5267C4.9464 59.8299 10.2916 52.9787 18.2441 50.4775L20.4576 49.7838L20.8476 47.6702C21.812 42.4533 26.6999 38.6667 32.4698 38.6667C34.3087 38.6667 36.0857 39.0577 37.7516 39.8256L41.339 41.4775L43.0701 38.1595C47.4681 29.7339 56.8675 24.2917 67.0143 24.2917ZM67.0143 20.6845C54.8788 20.6845 44.4304 27.1975 39.5214 36.6027C37.3982 35.6235 35.0083 35.0597 32.47 35.0597C24.681 35.0597 18.2289 40.2555 16.9684 47.068C7.6921 49.9849 1.01147 58.0301 1.01147 67.5269C1.01147 79.4716 11.5731 89.155 24.5999 89.1655H97.5102V89.1621C109.411 89.1056 119.039 80.2501 119.039 69.3303C119.039 58.3928 109.388 49.5266 97.464 49.4951C97.4718 49.2063 97.5102 48.9281 97.5102 48.6391C97.5102 33.2002 83.8569 20.6845 67.0143 20.6845Z" fill="white"/>
</svg>
