<?xml version="1.0" encoding="UTF-8" standalone="no"?>
<svg
   xmlns:dc="http://purl.org/dc/elements/1.1/"
   xmlns:cc="http://creativecommons.org/ns#"
   xmlns:rdf="http://www.w3.org/1999/02/22-rdf-syntax-ns#"
   xmlns:svg="http://www.w3.org/2000/svg"
   xmlns="http://www.w3.org/2000/svg"
   xmlns:xlink="http://www.w3.org/1999/xlink"
   xmlns:sodipodi="http://sodipodi.sourceforge.net/DTD/sodipodi-0.dtd"
   xmlns:inkscape="http://www.inkscape.org/namespaces/inkscape"
   viewBox="0 0 508 285.75">
  <defs
     id="defs2">
    <linearGradient
       id="linearGradient1501"
       x1="518"
       y1="28"
       x2="10"
       y2="349"
       gradientUnits="userSpaceOnUse"
       gradientTransform="matrix(0.50310922,0,0,0.43068287,110.06666,61.912499)">
      <stop
         stop-color="#4CB4EF"
         id="stop1497" />
      <stop
         offset="1"
         stop-color="#FDB0FF"
         stop-opacity="0.72"
         id="stop1499"
         style="stop-color:#a3ff87;stop-opacity:0.7215687" />
    </linearGradient>
    <inkscape:perspective
       sodipodi:type="inkscape:persp3d"
       inkscape:vp_x="0 : 142.875 : 1"
       inkscape:vp_y="0 : 1000 : 0"
       inkscape:vp_z="508 : 142.875 : 1"
       inkscape:persp3d-origin="254 : 95.25 : 1"
       id="perspective14" />
    <linearGradient
       id="paint0_linear"
       x1="518"
       y1="28"
       x2="10"
       y2="349"
       gradientUnits="userSpaceOnUse"
       gradientTransform="matrix(0.50310922,0,0,0.43068287,110.06666,61.912499)">
      <stop
         stop-color="#4CB4EF"
         id="stop260" />
      <stop
         offset="1"
         stop-color="#FDB0FF"
         stop-opacity="0.72"
         id="stop262" />
    </linearGradient>
    <linearGradient
       inkscape:collect="always"
       xlink:href="#paint0_linear"
       id="linearGradient329"
       gradientUnits="userSpaceOnUse"
       gradientTransform="matrix(0.50310922,0,0,0.43068287,121.17917,65.352086)"
       x1="518"
       y1="28"
       x2="10"
       y2="349" />
    <linearGradient
       inkscape:collect="always"
       xlink:href="#linearGradient1501"
       id="linearGradient353"
       gradientUnits="userSpaceOnUse"
       gradientTransform="matrix(0.50310922,0,0,0.43068287,121.17917,65.352086)"
       x1="600.11023"
       y1="-43.57457"
       x2="10"
       y2="349" />
    <linearGradient
       inkscape:collect="always"
       xlink:href="#linearGradient1501"
       id="linearGradient1291"
       gradientUnits="userSpaceOnUse"
       gradientTransform="matrix(0.50310922,0,0,0.43068287,121.17917,65.352086)"
       x1="600.11023"
       y1="-43.57457"
       x2="10"
       y2="349"
       spreadMethod="pad" />
  </defs>
  <g
     inkscape:label="Layer 1"
     inkscape:groupmode="layer"
     id="layer1">
    <g
       id="g390"
       transform="matrix(0.57590689,0.3325,-0.665,0.38393793,202.95523,2.5198143)"
       style="display:inline">
      <path
         id="path586"
         style="fill:#cccccc;stroke:none;stroke-width:1.75933px"
         d="m 816.42578,120.54492 -582.74414,336.44727 1.05078,0.60742 -1.04687,0.60351 0.97851,0.56446 -0.98242,0.56836 0.91211,0.52734 -0.91016,0.52539 -0.004,0.002 0.84961,0.49024 -0.84375,0.48633 0.77539,0.44726 -0.7793,0.45117 0.71094,0.41016 -0.71094,0.41016 0.64453,0.37109 -0.64258,0.37109 0.57618,0.33204 -0.57422,0.33203 0.50781,0.29297 -0.50781,0.29296 -0.004,0.002 0.43945,0.2539 -0.4375,0.25196 0.37305,0.21484 -0.37109,0.21484 -0.004,0.002 0.30469,0.17578 -0.30274,0.17578 0.23438,0.13477 -0.23242,0.13476 -0.004,0.004 0.16992,0.0976 -0.16601,0.0957 0.10156,0.0586 -0.10156,0.0586 0.0332,0.0195 -0.0352,0.0195 869.49022,502 582.7422,-336.44531 v -0.002 l -0.035,-0.0215 0.031,-0.0176 -0.1016,-0.0586 0.1016,-0.0586 -0.1661,-0.0957 0.168,-0.0977 v -0.002 l -0.2383,-0.13867 0.2344,-0.13477 -0.3047,-0.17578 0.3047,-0.17578 -0.3692,-0.21289 0.3711,-0.21485 v -0.002 l -0.4414,-0.25586 0.4375,-0.25195 -0.5079,-0.29297 0.5079,-0.29297 -0.5723,-0.33008 0.5742,-0.33203 -0.6445,-0.37304 0.6426,-0.3711 -0.709,-0.41015 0.7109,-0.41016 -0.7793,-0.44922 0.7774,-0.44922 -0.8457,-0.48828 0.8476,-0.48828 -0.914,-0.52734 0.914,-0.52735 -0.9805,-0.5664 0.9805,-0.56641 -1.0488,-0.60547 1.0488,-0.60547 z"
         transform="matrix(0.15275726,-0.13229167,0.26458333,0.22913589,-35.430137,146.59871)" />
      <rect
         y="66.213448"
         width="265.64166"
         height="154.18446"
         fill="url(#paint0_linear)"
         id="rect250"
         x="121.17917"
         style="opacity:1;mix-blend-mode:normal;fill:url(#linearGradient1291);fill-opacity:1;stroke:none;stroke-width:0.465;stroke-miterlimit:4;stroke-dasharray:none;stroke-opacity:1" />
    </g>
    <g
       id="g397"
       transform="matrix(0.665,0,0,0.665,84.96758,47.164269)">
      <rect
         width="265.64166"
         height="8.1829748"
         fill="#303030"
         id="rect252"
         x="121.17917"
         y="65.881248"
         style="stroke-width:0.46549"
         transform="matrix(0.86602541,0.50000001,-1,0.57735028,177.28211,-66.923737)" />
      <ellipse
         cx="163.64041"
         cy="-88.408554"
         fill="#f34d4d"
         id="circle359"
         style="stroke-width:0.537285"
         transform="matrix(0.8660254,0.5,-0.8660254,0.5,0,0)"
         rx="2"
         ry="2.309401" />
      <ellipse
         cx="171.69014"
         cy="-88.408554"
         fill="#d59e4d"
         id="circle361"
         style="stroke-width:0.537285"
         transform="matrix(0.8660254,0.5,-0.8660254,0.5,0,0)"
         rx="2"
         ry="2.309401" />
      <ellipse
         cx="179.7399"
         cy="-88.408554"
         fill="#7aa82e"
         id="circle363"
         style="stroke-width:0.537285"
         transform="matrix(0.8660254,0.5,-0.8660254,0.5,0,0)"
         rx="2"
         ry="2.309401" />
    </g>
  </g>
</svg>
